# xmcd CD database file
#
# Track frame offsets:
#	150
#	29742
#	51702
#	72499
#	109638
#	135656
#	149158
#	167061
#	201955
#	234252
#	244673
#	280465
#	305267
#	318121
#
# Disc length: 4466 seconds
#
# Revision: 0
# Processed by: cddbd v1.5.2PL0 Copyright (c) Steve Scherf et al.
# Submitted via: CDex 1.70beta3
#
DISCID=d911700e
DTITLE=Nina Simone - At the Village Gate
DYEAR=1961
DGENRE=Jazz
TTITLE0=Just in Time
TTITLE1=He Was Too Good to Me
TTITLE2=House of the Rising Sun
TTITLE3=Bye Bye Blackbird
TTITLE4=Brown Baby
TTITLE5=Zungo
TTITLE6=If He Changed My Name
TTITLE7=Children Go Where I Send You
TTITLE8=Eretz Zavat Chalav U'Dvash
TTITLE9=Vaynikehu
TTITLE10=Sinner Man
TTITLE11=You'll Never Walk Alone
TTITLE12=Children Go Where I Send You (Original Studio Version)
TTITLE13=You'll Never Walk Alone (Original Studio Version)
EXTD=YEAR: 1961
EXTT0=
EXTT1=
EXTT2=
EXTT3=
EXTT4=
EXTT5=
EXTT6=
EXTT7=
EXTT8=
EXTT9=
EXTT10=
EXTT11=
EXTT12=
EXTT13=
PLAYORDER=
